<?xml version="1.0" encoding="UTF-8"?>
<svg id="Calque_1" data-name="Calque 1" xmlns="http://www.w3.org/2000/svg" width="548.37" height="105.56" viewBox="0 0 548.37 105.56">
  <g id="lion">
    <path d="M97.58,45.36c-1.81-6.04-5.79-12.15-11.47-15.2,1.25-.81,2.18-1.81,2.93-3.12,1.31-2.31,2.18-5.73,1.43-8.35-1.74-6.23-10.72-8.16-16.39-8.35-1.12,0-3.43.5-4.36,0,1.74-2.12,6.92-1.68,9.41-2.31-1.93-1.31-3.8-1.99-6.11-2.49-4.42-.93-9.85-1.56-14.08.44-1.43.69-2.74,1.74-4.05,2.55.5-.93,1.06-1.74,1.74-2.49,3.43-3.61,7.79-4.3,12.52-4.36-1.62-.5-3.36-.87-4.98-1.25-3.93-.81-8.16-.62-11.65,1.68-3.93,2.62-3.86,6.61-4.74,10.78-.5-1.31-1.06-2.62-1.81-3.8-2.55-4.05-6.48-5.92-10.97-6.92,2.93,4.05,4.24,6.29,4.92,11.34-.5-.87-1-1.74-1.5-2.68-1.5-2.68-4.55-6.92-7.66-7.73-.62-.19-1.06-.06-1.62.25,1.99,1.99,3.55,4.3,4.49,6.92-4.3-2.24-6.36-3.24-11.4-2.74,2.24,1.18,5.79,2.68,6.61,5.3v.44c-.5.25-.81.25-1.37.06-1.12-.31-2.12-.81-3.18-1.18-3.43-1.06-7.48-1.12-10.66.62-1.99,1.06-3.43,2.68-4.42,4.61-1,2.74-1,5.42.25,8.04.81,1.68,2.06,3.05,3.3,4.42l.31.12c.19-.06.37-.12.56-.25h0c-.12.12-.37.19-.56.25l-.31-.12c-1.31,1.31-2.93,2.31-4.3,3.61-4.17,3.93-7.04,9.35-8.47,14.89.75-1.18,1.37-2.43,2.12-3.61,2.24-3.49,5.11-6.85,8.29-9.53-1.18,2.43-2.8,4.67-4.11,7.1-3.43,6.29-4.24,13.65-3.74,20.75.81-1.62,1.18-3.86,1.81-5.67,2.55-6.85,4.98-9.41,10.09-14.46-1.12,2.87-2.87,5.42-4.36,8.1-3.93,7.1-5.05,14.02-3.05,21.87,1.56-6.11,3.24-12.28,8.6-16.2-2.37,3.99-4.11,8.54-4.49,13.15-.37,5.05,1.12,10.28,4.42,14.14-1.87-9.41-.69-14.33,4.42-22.31-1.68,6.73-2.24,14.39.5,20.94,2.12,5.11,5.61,9.6,10.84,11.71-1.18-1.37-2.68-2.49-3.86-3.86-2.49-2.99-2.87-7.04-2.49-10.78.69,1.93,1.06,3.99,1.99,5.92,1.81,3.68,7.73,9.35,11.28,11.4-2.18-5.05-6.23-9.53-7.73-14.89-1.18-4.11,3.43-8.23,2.74-12.84-.31-1.93-2.62-.87-3.86-1.81-1.93-1.43,1.37-7.1.25-10.09-.87-2.24-2.31-4.36-3.49-6.42-1.87-3.24-4.36-8.35-4.11-12.15.12-2.24,2.55-4.86,3.61-6.79.56-1,.87-1.99,1.25-3.12.19-.69.5-1.37.37-2.12-.12-.25-.31-.44-.56-.56-1.87-1.12-6.98-.56-8.85.31-1.18.56-2.43,1.87-3.68,2.18h-.12c-1.81-1.93-2.87-4.49-2.68-7.17.06-1.68.75-3.36,1.99-4.49,1.18-1.06,2.8-1.5,4.36-1.43,2.12.12,3.43,1.12,4.98,2.37-1.87,1.18-5.73,3.49-6.29,5.73v.62l.25.37c.75.12,4.86-1.62,5.98-1.87,4.17-1.12,8.91-2.12,13.27-2.06-1.5,1.43-2.93,2.93-4.24,4.55-1.93,2.49-7.17,10.78-7.29,13.71-.12,4.36,6.73,9.72,7.66,12.77.5,1.56.12,3.49.12,5.11l.25.19c.62-.56,1.5-6.48,1.56-7.73,0-.56,0-1.12.06-1.68,1.25,1.99,1.37,3.49.81,5.79-.81,3.18-2.12,6.23-2.68,9.47,1.5-.31,2.99-.56,4.49-.69-.87,1.18-1.74,2.43-2.62,3.61,2.18.56,4.49.75,6.61,1.56-1.5.69-3.18,1.12-4.67,1.87.44,1.25.87,3.05,2.18,3.61,1.99.87,4.67.12,6.54-.62,1.06-.44,2.43-1,3.05-1.93.12-.56,0-1.06,0-1.62-.19-.56-.19-1.25-.25-1.81-.25-2.49-1-3.49-2.74-5.23-.62-.31-1.31-.93-1.93-1.31-1.12-.69-4.11-1.87-4.49-3.05-.06-.25,0-.31.12-.56.62-.12,1.25-.06,1.87,0,1.81.31,7.29,1.37,8.72,1.99.37.12.56.44.81.75h0c1.06,0,6.54-3.99,9.04-2.8.25.31.44.44.5.87-1.56,2.24-9.78,1.81-10.72,10.03.12,1.25,0,2.24,1.12,3.18,1.87,1.56,5.86,2.93,8.35,2.68.69-.06,1.43-.31,1.87-.87s.62-1.5.56-2.18c-.12-.87-.81-1.31-1.5-1.81,2.37-1.93,5.42-2.87,7.48-5.17.31-5.11-1.56-9.97-1.68-15.02,1.81-1.12,2.87-3.68,4.05-5.48-.5,2.49-2.37,4.74-2.31,7.35,0,.69.37,1.87.87,2.31.12.12.31.06.5.06.75-.56,1.31-1.5,1.74-2.31.69-1.25,4.42-9.35,4.55-10.34.19-1.25-.19-2.43-.56-3.61-2.74-6.48-7.42-12.52-13.96-15.39,6.04-.25,10.66,1.12,16.2,3.43,1.68.81,3.36,1.74,5.05,2.43.44-.44.69-.69.69-1.31.12-2.55-4.55-5.73-4.17-7.6.06-.44.44-.81.69-1.12.93-.93,2.24-1.43,3.55-1.37h.56c.19,0,.37,0,.56.12.19,0,.37.06.56.12.19,0,.37.12.56.19.19.06.37.19.5.25.19.06.31.19.5.31.12.12.31.25.44.37s.31.25.44.37c1.37,1.43,1.5,3.43,1.5,5.3,0,1.68-.44,4.17-1.74,5.36-.56.5-1.18.69-1.93.62-1-.06-1.99-.37-2.99-.56-1.68-.62-3.36-1.43-4.98-2.24-1.25.12-2.8,1.18-3.86,1.87.93,2.74,1.93,5.55,3.05,8.23.75,2.24,2.31,5.3,1.99,7.66-.12,1.12-.56,2.24-.81,3.36-.31,1.5-.44,3.05-1.12,4.49-1.25,2.62-4.17,3.86-5.48,6.04-.31.62-.31,1.37-.25,1.99.44,5.73-1.18,6.54-5.42,9.85-.06,2.24-.93,4.55-.81,6.73.12,1.74.81,3.43,1.18,5.17.69,3.8.87,8.54-.25,12.21-.5,1.62-1.25,3.12-1.81,4.67,4.36-4.49,5.55-8.47,5.42-14.58,0-2.24-.31-4.42-.81-6.61-.37-1.56-1.87-3.74-1.74-5.3,4.11,8.29,5.73,14.52,3.24,23.68,4.36-2.37,7.48-5.73,10.16-9.85,2.68-3.99,3.61-8.29,2.68-13.02,0-.31-.12-.62-.19-.93-.06-.31-.19-.62-.25-.93s-.19-.62-.31-.87c-.12-.31-.25-.56-.31-.87-.12-.31-.25-.56-.37-.87s-.25-.56-.44-.87c-.12-.25-.31-.56-.44-.81-.19-.25-.31-.56-.5-.81s-.37-.5-.56-.75c-.19-.25-.37-.5-.56-.75-.19-.25-.37-.5-.62-.69-.19-.25-.44-.44-.62-.69-.25-.25-.44-.44-.69-.62-.25-.19-.5-.44-.69-.62-.25-.19-.5-.37-.75-.56s-.5-.37-.75-.56c.56.12,1.18.31,1.74.5,3.43,1.18,6.23,4.92,7.85,8.16,3.12,6.29,2.31,10.16.19,16.51,1.37-1.5,2.55-3.3,3.36-5.17,3.36-7.48,2.31-14.08-2.37-20.69-.87-1.25-2.43-2.55-2.93-3.86l.19-.19c.19,0,.44.12.62.19,1.31.56,2.62,1.56,3.74,2.49,4.3,3.61,5.3,7.1,7.29,12.09.44-1.12.81-2.24.93-3.43.87-9.16-7.85-15.58-13.02-21.87,5.92,2.55,11.28,7.04,14.21,12.84.62,1.31,1.43,3.93,2.62,4.8.12-1.18,0-2.55-.06-3.74-.81-9.66-7.54-16.7-12.9-24.24,3.74,2.93,7.35,5.05,10.41,8.85,1.31,1.62,2.12,3.49,3.43,5.11h.25c.31-.81-.37-2.68-.62-3.49l-.44.37ZM13.83,29.47v.12-.12ZM13.77,29.66v.12-.12ZM13.71,29.79s0,.06-.06.12c0,0,.06-.06.06-.12ZM40.69,38.94c-3.05,4.55-1.12,5.36-1.99,9.97-.12.69-.5,1.87-1.06,2.24v-.5c.31-.93.5-2.06.44-2.99-.12-1.62-.56-3.24-1.06-4.8-2.18-6.36-5.55-3.43-7.98-5.67-.19-.19-.19-.25-.19-.5.75-1,3.05-.62,4.17-1,1-.31,2.06-1,2.99-1.43.19.06.62.25.75.37.31.31,2.06,3.43,2.74,4.36.31-.56.56-1.25.93-1.81.25-.44.56-.62,1-.75l.31.19c0,.81-.56,1.62-1,2.24l-.06.06ZM51.34,34.89c0-.06,0-.12-.06-.19-.75-2.24-1.25-8.72-.19-10.84l.37.25c0,.19.12.37.12.5.19,1.43.31,9.53-.25,10.28ZM62.93,63.99c-1.25,1.18-3.24,1.37-4.86,1.31-.19,0-.31-.19-.44-.25,0-.75.69-1.5,1.06-2.12,1.43-.37,2.93-.56,4.42-.93.25,0,.31,0,.5.12v.37c0,.56-.37,1.12-.75,1.5h.06ZM63.99,36.39c.56.06,1.25-.25,1.81-.31.37-.44.56-.56.69-1.12-.37-1.18-1.37-1.99-1.93-3.12,1.06.62,3.05,1.56,3.36,2.8.06.31.06.62-.06.87-.19.31-.62.62-.93.87-1.93,1.43-4.36,1.5-6.11,2.8-1.12.81-1.56,4.11-3.3,5.98.37,1.12.69,2.24,1.12,3.3.87,1.93,4.05,8.79,3.43,10.59-.37.31-.44.37-.87.44-.56-.62-.31-2.18-.5-2.99-.56-2.37-2.24-5.3-2.62-7.48-.25-.87-.56-1.74-.75-2.62-.37-1.74.25-2.8,1.18-4.24-.25-1.93-.5-4.24.81-5.86,1.5-1.87,3.12-.19,4.74,0l-.06.06Z" fill="#fcbb46"/>
    <path d="M47.92,73.78c-3.18,1.37-7.48,2.99-9.97,5.42,0,2.37,0,4.61.81,6.85.56,1.68,1.5,3.18,2.55,4.67,3.8,5.61,5.17,7.91,3.36,14.83,2.31-2.55,3.49-5.36,3.3-8.85,0-1.06-.31-2.06-.56-3.12l-.12-.44c.5.12,1.56,2.06,1.87,2.62,1.12,1.87,1.25,3.55.87,5.67,5.11-3.3,9.35-6.36,10.72-12.71.69-3.18.69-7.98-.62-11.03-1.37-.5-11.4-3.86-12.21-3.86v-.06Z" fill="#fcbb46"/>
  </g>
  <g>
    <g>
      <path d="M148.97,36.48l.9.2-3.3,9.5h-29.5v-1h1.4c1.6,0,2.8-.5,3.5-1.4.4-.6.6-1.8.6-3.8v-22.6c0-2.2-.3-3.6-.8-4.1-.7-.8-1.8-1.1-3.3-1.1h-1.4v-1h17.3v1c-2,0-3.4.2-4.3.5-.8.4-1.4.8-1.7,1.4-.3.6-.5,1.9-.5,4v22c0,1.4.1,2.4.5,2.9.2.4.6.6,1,.8.5.2,1.9.3,4.4.3h2.8c2.9,0,5-.2,6.2-.6s2.3-1.1,3.2-2.1c1-1,1.9-2.6,2.9-4.8l.1-.1Z" fill="#efe8e4"/>
      <path d="M175.97,45.18v1h-16.3v-1h1.4c1.6,0,2.7-.4,3.4-1.3.5-.6.7-1.9.7-4v-22.7c0-1.8-.1-2.9-.4-3.5-.2-.4-.6-.8-1.2-1.1-.8-.4-1.7-.6-2.6-.6h-1.4v-1h16.3v1h-1.4c-1.6,0-2.7.4-3.4,1.3-.5.6-.7,1.9-.7,4v22.7c0,1.8.1,2.9.4,3.5.2.4.6.8,1.2,1.1.8.4,1.7.6,2.6.6h1.4Z" fill="#efe8e4"/>
      <path d="M205.47,10.28c4.9,0,9.2,1.7,12.9,5.2s5.4,7.8,5.4,12.9-1.8,9.8-5.5,13.3-8.1,5.3-13.3,5.3-9.7-1.7-13.2-5.1c-3.6-3.4-5.4-7.9-5.4-13.3s2.1-10.1,6.2-13.6c3.6-3.1,7.9-4.6,12.9-4.6v-.1ZM204.97,12.18c-3.4,0-6.1,1.2-8.2,3.5-2.6,2.9-3.9,7.1-3.9,12.7s1.3,10.1,4,13.2c2,2.3,4.7,3.5,8.1,3.5s6.5-1.3,8.9-3.9c2.3-2.6,3.5-6.6,3.5-12.2s-1.3-10.5-3.9-13.4c-2.1-2.3-4.9-3.5-8.5-3.5v.1Z" fill="#efe8e4"/>
      <path d="M232.37,11.08h10.3l23.3,26.3v-20.2c0-2.2-.3-3.5-.8-4-.7-.7-1.8-1.1-3.3-1.1h-1.3v-1h13.3v1h-1.3c-1.6,0-2.8.4-3.4,1.3-.4.6-.6,1.8-.6,3.8v29.6h-1l-25.1-28.2v21.6c0,2.2.3,3.5.8,4,.7.7,1.8,1.1,3.3,1.1h1.3v1h-13.3v-1h1.3c1.6,0,2.8-.4,3.5-1.3.4-.6.6-1.8.6-3.8V15.78c-1.1-1.2-1.9-2-2.5-2.4s-1.4-.7-2.5-1.1c-.5-.2-1.4-.2-2.5-.2v-1h-.1Z" fill="#efe8e4"/>
      <path d="M329.67,10.28v12.1h-1c-.3-2.3-.9-4.2-1.8-5.6s-2.1-2.5-3.7-3.3c-1.6-.8-3.3-1.2-5-1.2s-3.6.5-4.8,1.6c-1.3,1.1-1.9,2.3-1.9,3.7s.4,2,1.2,2.9c1.2,1.3,3.9,3,8.3,5.2,3.6,1.8,6,3.1,7.3,4s2.3,2,3,3.3,1.1,2.6,1.1,4c0,2.7-1.1,4.9-3.4,6.9s-5.1,2.9-8.6,2.9-2.1,0-3.1-.2c-.6,0-1.8-.4-3.6-.9s-3-.8-3.5-.8-.8.1-1.1.4c-.3.3-.5.8-.6,1.6h-1v-12h1c.5,2.5,1.1,4.4,2,5.7.8,1.3,2.1,2.3,3.8,3.1s3.6,1.2,5.6,1.2,4.2-.6,5.6-1.7c1.4-1.1,2-2.5,2-4s-.3-1.7-.8-2.6c-.5-.9-1.3-1.7-2.4-2.5-.7-.5-2.7-1.6-6-3.3s-5.6-3-7-4-2.4-2.1-3.1-3.3c-.7-1.2-1.1-2.5-1.1-4,0-2.5,1-4.7,3.1-6.5s4.8-2.7,8-2.7,4.2.5,6.4,1.4c1,.4,1.8.6,2.2.6s.9-.1,1.2-.4c.3-.3.6-.8.7-1.6h1Z" fill="#efe8e4"/>
      <path d="M354.47,12.98v13.9h8.4c2.2,0,3.6-.3,4.4-.9,1-.8,1.5-2.2,1.6-4.2h1v12.2h-1c-.3-1.7-.5-2.8-.8-3.3-.3-.6-.9-1.1-1.7-1.4-.8-.3-2-.5-3.5-.5h-8.4v11.6c0,1.6,0,2.5.2,2.8.1.3.4.6.8.8s1.1.3,2.1.3h6.5c2.2,0,3.7-.1,4.7-.4,1-.3,1.9-.8,2.8-1.6,1.2-1.1,2.4-2.7,3.6-4.8h1.1l-3.3,8.8h-29.4v-1h1.4c.9,0,1.8-.2,2.6-.6.6-.3,1-.7,1.2-1.2.2-.6.3-1.7.3-3.4v-22.8c0-2.2-.2-3.6-.7-4.1-.7-.7-1.8-1-3.4-1h-1.4v-1h29.4l.4,7.7h-1.1c-.4-1.8-.8-3.1-1.3-3.8s-1.2-1.2-2.1-1.6c-.8-.3-2.1-.4-4-.4h-10.5l.1-.1Z" fill="#efe8e4"/>
      <path d="M417.67,36.48l.9.2-3.3,9.5h-29.5v-1h1.4c1.6,0,2.8-.5,3.5-1.4.4-.6.6-1.8.6-3.8v-22.6c0-2.2-.3-3.6-.8-4.1-.7-.8-1.8-1.1-3.3-1.1h-1.4v-1h17.3v1c-2,0-3.4.2-4.3.5-.8.4-1.4.8-1.7,1.4-.3.6-.5,1.9-.5,4v22c0,1.4.2,2.4.5,2.9.2.4.6.6,1,.8.5.2,1.9.3,4.4.3h2.8c2.9,0,5-.2,6.2-.6,1.2-.4,2.3-1.1,3.2-2.1s2-2.6,2.9-4.8l.1-.1Z" fill="#efe8e4"/>
      <path d="M438.97,12.98v13.9h8.4c2.2,0,3.6-.3,4.4-.9,1-.8,1.5-2.2,1.6-4.2h1v12.2h-1c-.3-1.7-.5-2.8-.8-3.3-.3-.6-.9-1.1-1.7-1.4-.8-.3-2-.5-3.5-.5h-8.4v11.6c0,1.6,0,2.5.2,2.8.1.3.4.6.8.8s1.1.3,2.1.3h6.5c2.2,0,3.7-.1,4.7-.4,1-.3,1.9-.8,2.8-1.6,1.2-1.1,2.4-2.7,3.6-4.8h1.1l-3.3,8.8h-29.4v-1h1.4c.9,0,1.8-.2,2.6-.6.6-.3,1-.7,1.2-1.2.2-.6.3-1.7.3-3.4v-22.8c0-2.2-.2-3.6-.7-4.1-.7-.7-1.8-1-3.4-1h-1.4v-1h29.4l.4,7.7h-1.1c-.4-1.8-.8-3.1-1.3-3.8s-1.2-1.2-2.1-1.6c-.8-.3-2.1-.4-4-.4h-10.5l.1-.1Z" fill="#efe8e4"/>
      <path d="M503.87,10.28l.9,11.9h-.9c-1.2-3.6-2.8-6.1-5-7.7-2.2-1.6-4.7-2.4-7.8-2.4s-4.8.6-6.9,1.8c-2,1.2-3.7,3.1-4.8,5.7-1.2,2.6-1.8,5.8-1.8,9.6s.6,5.9,1.7,8.3c1.1,2.3,2.8,4.1,5,5.4,2.2,1.2,4.8,1.9,7.6,1.9s4.7-.5,6.6-1.5,4-2.9,6.2-5.8l.9.5c-1.9,3.1-4.1,5.4-6.7,6.9-2.5,1.4-5.6,2.2-9.1,2.2-6.3,0-11.2-2.2-14.7-6.5-2.6-3.2-3.9-7-3.9-11.3s.9-6.7,2.6-9.6c1.7-2.9,4.1-5.2,7-6.8,3-1.6,6.3-2.4,9.8-2.4s5.5.6,8.2,1.9c.8.4,1.4.6,1.7.6.5,0,.9-.2,1.3-.5.5-.5.8-1.1,1-1.9h1l.1-.3Z" fill="#efe8e4"/>
      <path d="M547.97,11.08l.4,8.2h-1.1c-.2-1.4-.5-2.5-.8-3.1-.6-1-1.4-1.7-2.3-2.2-1-.5-2.2-.7-3.8-.7h-5.4v26.8c0,2.2.3,3.5.8,4,.7.7,1.8,1.1,3.3,1.1h1.3v1h-16.2v-1h1.4c1.6,0,2.8-.4,3.4-1.3.4-.6.6-1.8.6-3.8V13.28h-4.6c-1.8,0-3,.1-3.8.4-1,.3-1.8,1-2.5,1.9s-1.1,2.2-1.2,3.8h-1.1l.5-8.2h31.1v-.1Z" fill="#efe8e4"/>
    </g>
    <g>
      <path d="M220.07,91.38c1.4.8,3.4,1.5,5.6,1.5,3.2,0,5.1-1.6,5.1-4s-1.3-3.4-4.6-4.6c-3.9-1.3-6.4-3.3-6.4-6.6s3.1-6.3,7.8-6.3,4.3.6,5.3,1.1l-.9,2.4c-.8-.4-2.4-1.1-4.6-1.1-3.3,0-4.6,1.9-4.6,3.5s1.5,3.2,4.8,4.5c4.1,1.5,6.2,3.4,6.2,6.8s-2.8,6.7-8.5,6.7-4.9-.7-6.2-1.5l.8-2.5.2.1Z" fill="#efe8e4"/>
      <path d="M258.47,87.68l-2.5,7.3h-3.2l8.2-23.2h3.8l8.3,23.2h-3.3l-2.6-7.3h-8.7ZM266.37,85.38l-2.4-6.7c-.5-1.5-.9-2.9-1.3-4.2h0c-.4,1.4-.8,2.8-1.2,4.2l-2.4,6.7h7.3,0Z" fill="#efe8e4"/>
      <path d="M292.87,71.78h13v2.5h-9.9v7.7h9.2v2.5h-9.2v10.5h-3.1v-23.2Z" fill="#efe8e4"/>
      <path d="M327.77,87.68l-2.5,7.3h-3.2l8.2-23.2h3.8l8.3,23.2h-3.3l-2.6-7.3h-8.7ZM335.67,85.38l-2.4-6.7c-.5-1.5-.9-2.9-1.3-4.2h0c-.4,1.4-.8,2.8-1.2,4.2l-2.4,6.7h7.3,0Z" fill="#efe8e4"/>
      <path d="M362.17,72.08c1.6-.3,3.8-.5,6-.5,3.3,0,5.5.6,7,1.9,1.2,1,1.9,2.6,1.9,4.4,0,3.1-2,5.1-4.6,5.9h0c1.9.7,3,2.4,3.6,4.8.8,3.2,1.4,5.5,1.9,6.4h-3.2c-.4-.7-.9-2.7-1.6-5.5-.7-3.2-2-4.4-4.8-4.5h-2.9v10.1h-3.1v-22.9l-.2-.1ZM365.27,82.68h3.2c3.3,0,5.5-1.8,5.5-4.4s-2.3-4.3-5.6-4.3c-1.5,0-2.6.1-3.1.3v8.5-.1Z" fill="#efe8e4"/>
      <path d="M400.97,71.78v23.2h-3.1v-23.2h3.1Z" fill="#efe8e4"/>
      <path d="M422.27,91.38c1.4.8,3.4,1.5,5.6,1.5,3.2,0,5.1-1.6,5.1-4s-1.3-3.4-4.6-4.6c-3.9-1.3-6.4-3.3-6.4-6.6s3.1-6.3,7.8-6.3,4.3.6,5.3,1.1l-.9,2.4c-.8-.4-2.4-1.1-4.6-1.1-3.3,0-4.6,1.9-4.6,3.5s1.5,3.2,4.8,4.5c4.1,1.5,6.2,3.4,6.2,6.8s-2.8,6.7-8.5,6.7-4.9-.7-6.2-1.5l.8-2.5.2.1Z" fill="#efe8e4"/>
    </g>
    <rect x="117.07" y="76.78" width="79.1" height="1.5" fill="#efe8e4"/>
    <rect x="468.87" y="76.78" width="79.1" height="1.5" fill="#efe8e4"/>
  </g>
</svg>