<?xml version="1.0" encoding="UTF-8"?>
<svg id="Calque_1" xmlns="http://www.w3.org/2000/svg" version="1.1" viewBox="0 0 431.4 274.4">
  <!-- Generator: Adobe Illustrator 30.0.0, SVG Export Plug-In . SVG Version: 2.1.1 Build 123)  -->
  <defs>
    <style>
      .st0 {
        fill: #efe8e4;
      }

      .st1 {
        fill: #fcbb46;
      }
    </style>
  </defs>
  <g id="lion">
    <path class="st1" d="M285.2,72.6c-2.9-9.7-9.3-19.5-18.4-24.4,2-1.3,3.5-2.9,4.7-5,2.1-3.7,3.5-9.2,2.3-13.4-2.8-10-17.2-13.1-26.3-13.4-1.8,0-5.5.8-7,0,2.8-3.4,11.1-2.7,15.1-3.7-3.1-2.1-6.1-3.2-9.8-4-7.1-1.5-15.8-2.5-22.6.7-2.3,1.1-4.4,2.8-6.5,4.1.8-1.5,1.7-2.8,2.8-4,5.5-5.8,12.5-6.9,20.1-7-2.6-.8-5.4-1.4-8-2-6.3-1.3-13.1-1-18.7,2.7-6.3,4.2-6.2,10.6-7.6,17.3-.8-2.1-1.7-4.2-2.9-6.1-4.1-6.5-10.4-9.5-17.6-11.1,4.7,6.5,6.8,10.1,7.9,18.2-.8-1.4-1.6-2.8-2.4-4.3-2.4-4.3-7.3-11.1-12.3-12.4-1-.3-1.7-.1-2.6.4,3.2,3.2,5.7,6.9,7.2,11.1-6.9-3.6-10.2-5.2-18.3-4.4,3.6,1.9,9.3,4.3,10.6,8.5,0,.2,0,.5,0,.7-.8.4-1.3.4-2.2.1-1.8-.5-3.4-1.3-5.1-1.9-5.5-1.7-12-1.8-17.1,1-3.2,1.7-5.5,4.3-7.1,7.4-1.6,4.4-1.6,8.7.4,12.9,1.3,2.7,3.3,4.9,5.3,7.1l.5.2c.3-.1.6-.2.9-.4,0,0,0,0,0,0,0,0,0,0,0,0-.2.2-.6.3-.9.4l-.5-.2c-2.1,2.1-4.7,3.7-6.9,5.8-6.7,6.3-11.3,15-13.6,23.9,1.2-1.9,2.2-3.9,3.4-5.8,3.6-5.6,8.2-11,13.3-15.3-1.9,3.9-4.5,7.5-6.6,11.4-5.5,10.1-6.8,21.9-6,33.3,1.3-2.6,1.9-6.2,2.9-9.1,4.1-11,8-15.1,16.2-23.2-1.8,4.6-4.6,8.7-7,13-6.3,11.4-8.1,22.5-4.9,35.1,2.5-9.8,5.2-19.7,13.8-26-3.8,6.4-6.6,13.7-7.2,21.1-.6,8.1,1.8,16.5,7.1,22.7-3-15.1-1.1-23,7.1-35.8-2.7,10.8-3.6,23.1.8,33.6,3.4,8.2,9,15.4,17.4,18.8-1.9-2.2-4.3-4-6.2-6.2-4-4.8-4.6-11.3-4-17.3,1.1,3.1,1.7,6.4,3.2,9.5,2.9,5.9,12.4,15,18.1,18.3-3.5-8.1-10-15.3-12.4-23.9-1.9-6.6,5.5-13.2,4.4-20.6-.5-3.1-4.2-1.4-6.2-2.9-3.1-2.3,2.2-11.4.4-16.2-1.4-3.6-3.7-7-5.6-10.3-3-5.2-7-13.4-6.6-19.5.2-3.6,4.1-7.8,5.8-10.9.9-1.6,1.4-3.2,2-5,.3-1.1.8-2.2.6-3.4-.2-.4-.5-.7-.9-.9-3-1.8-11.2-.9-14.2.5-1.9.9-3.9,3-5.9,3.5,0,0-.1,0-.2,0-2.9-3.1-4.6-7.2-4.3-11.5.1-2.7,1.2-5.4,3.2-7.2,1.9-1.7,4.5-2.4,7-2.3,3.4.2,5.5,1.8,8,3.8-3,1.9-9.2,5.6-10.1,9.2,0,.3,0,.7,0,1l.4.6c1.2.2,7.8-2.6,9.6-3,6.7-1.8,14.3-3.4,21.3-3.3-2.4,2.3-4.7,4.7-6.8,7.3-3.1,4-11.5,17.3-11.7,22-.2,7,10.8,15.6,12.3,20.5.8,2.5.2,5.6.2,8.2l.4.3c1-.9,2.4-10.4,2.5-12.4,0-.9,0-1.8.1-2.7,2,3.2,2.2,5.6,1.3,9.3-1.3,5.1-3.4,10-4.3,15.2,2.4-.5,4.8-.9,7.2-1.1-1.4,1.9-2.8,3.9-4.2,5.8,3.5.9,7.2,1.2,10.6,2.5-2.4,1.1-5.1,1.8-7.5,3,.7,2,1.4,4.9,3.5,5.8,3.2,1.4,7.5.2,10.5-1,1.7-.7,3.9-1.6,4.9-3.1.2-.9,0-1.7,0-2.6-.3-.9-.3-2-.4-2.9-.4-4-1.6-5.6-4.4-8.4-1-.5-2.1-1.5-3.1-2.1-1.8-1.1-6.6-3-7.2-4.9-.1-.4,0-.5.2-.9,1-.2,2-.1,3,0,2.9.5,11.7,2.2,14,3.2.6.2.9.7,1.3,1.2,0,0,0,0,0,0,1.7,0,10.5-6.4,14.5-4.5.4.5.7.7.8,1.4-2.5,3.6-15.7,2.9-17.2,16.1.2,2,0,3.6,1.8,5.1,3,2.5,9.4,4.7,13.4,4.3,1.1-.1,2.3-.5,3-1.4.7-.9,1-2.4.9-3.5-.2-1.4-1.3-2.1-2.4-2.9,3.8-3.1,8.7-4.6,12-8.3.5-8.2-2.5-16-2.7-24.1,2.9-1.8,4.6-5.9,6.5-8.8-.8,4-3.8,7.6-3.7,11.8,0,1.1.6,3,1.4,3.7.2.2.5.1.8.1,1.2-.9,2.1-2.4,2.8-3.7,1.1-2,7.1-15,7.3-16.6.3-2-.3-3.9-.9-5.8-4.4-10.4-11.9-20.1-22.4-24.7,9.7-.4,17.1,1.8,26,5.5,2.7,1.3,5.4,2.8,8.1,3.9.7-.7,1.1-1.1,1.1-2.1.2-4.1-7.3-9.2-6.7-12.2.1-.7.7-1.3,1.1-1.8,1.5-1.5,3.6-2.3,5.7-2.2.3,0,.6,0,.9,0,.3,0,.6,0,.9.2.3,0,.6.1.9.2.3,0,.6.2.9.3.3.1.6.3.8.4.3.1.5.3.8.5.2.2.5.4.7.6.2.2.5.4.7.6,2.2,2.3,2.4,5.5,2.4,8.5,0,2.7-.7,6.7-2.8,8.6-.9.8-1.9,1.1-3.1,1-1.6-.1-3.2-.6-4.8-.9-2.7-1-5.4-2.3-8-3.6-2,.2-4.5,1.9-6.2,3,1.5,4.4,3.1,8.9,4.9,13.2,1.2,3.6,3.7,8.5,3.2,12.3-.2,1.8-.9,3.6-1.3,5.4-.5,2.4-.7,4.9-1.8,7.2-2,4.2-6.7,6.2-8.8,9.7-.5,1-.5,2.2-.4,3.2.7,9.2-1.9,10.5-8.7,15.8-.1,3.6-1.5,7.3-1.3,10.8.2,2.8,1.3,5.5,1.9,8.3,1.1,6.1,1.4,13.7-.4,19.6-.8,2.6-2,5-2.9,7.5,7-7.2,8.9-13.6,8.7-23.4,0-3.6-.5-7.1-1.3-10.6-.6-2.5-3-6-2.8-8.5,6.6,13.3,9.2,23.3,5.2,38,7-3.8,12-9.2,16.3-15.8,4.3-6.4,5.8-13.3,4.3-20.9,0-.5-.2-1-.3-1.5-.1-.5-.3-1-.4-1.5-.1-.5-.3-1-.5-1.4-.2-.5-.4-.9-.5-1.4-.2-.5-.4-.9-.6-1.4-.2-.5-.4-.9-.7-1.4-.2-.4-.5-.9-.7-1.3-.3-.4-.5-.9-.8-1.3-.3-.4-.6-.8-.9-1.2-.3-.4-.6-.8-.9-1.2-.3-.4-.6-.8-1-1.1-.3-.4-.7-.7-1-1.1-.4-.4-.7-.7-1.1-1-.4-.3-.8-.7-1.1-1-.4-.3-.8-.6-1.2-.9-.4-.3-.8-.6-1.2-.9.9.2,1.9.5,2.8.8,5.5,1.9,10,7.9,12.6,13.1,5,10.1,3.7,16.3.3,26.5,2.2-2.4,4.1-5.3,5.4-8.3,5.4-12,3.7-22.6-3.8-33.2-1.4-2-3.9-4.1-4.7-6.2l.3-.3c.3,0,.7.2,1,.3,2.1.9,4.2,2.5,6,4,6.9,5.8,8.5,11.4,11.7,19.4.7-1.8,1.3-3.6,1.5-5.5,1.4-14.7-12.6-25-20.9-35.1,9.5,4.1,18.1,11.3,22.8,20.6,1,2.1,2.3,6.3,4.2,7.7.2-1.9,0-4.1-.1-6-1.3-15.5-12.1-26.8-20.7-38.9,6,4.7,11.8,8.1,16.7,14.2,2.1,2.6,3.4,5.6,5.5,8.2h.4c.5-1.3-.6-4.3-1-5.6ZM150.8,47.1c0,0,0,.1,0,.2,0,0,0-.1,0-.2ZM150.7,47.4c0,0,0,.1,0,.2,0,0,0-.1,0-.2ZM150.6,47.6c0,0,0,.1-.1.2,0,0,.1-.1.1-.2ZM193.9,62.3c-4.9,7.3-1.8,8.6-3.2,16-.2,1.1-.8,3-1.7,3.6v-.8c.5-1.5.8-3.3.7-4.8-.2-2.6-.9-5.2-1.7-7.7-3.5-10.2-8.9-5.5-12.8-9.1-.3-.3-.3-.4-.3-.8,1.2-1.6,4.9-1,6.7-1.6,1.6-.5,3.3-1.6,4.8-2.3.3.1,1,.4,1.2.6.5.5,3.3,5.5,4.4,7,.5-.9.9-2,1.5-2.9.4-.7.9-1,1.6-1.2l.5.3c0,1.3-.9,2.6-1.6,3.6ZM211,55.8c0-.1,0-.2-.1-.3-1.2-3.6-2-14-.3-17.4l.6.4c0,.3.2.6.2.8.3,2.3.5,15.3-.4,16.5ZM229.6,102.5c-2,1.9-5.2,2.2-7.8,2.1-.3,0-.5-.3-.7-.4,0-1.2,1.1-2.4,1.7-3.4,2.3-.6,4.7-.9,7.1-1.5.4,0,.5,0,.8.2,0,.2,0,.4,0,.6,0,.9-.6,1.8-1.2,2.4ZM231.3,58.2c.9.1,2-.4,2.9-.5.6-.7.9-.9,1.1-1.8-.6-1.9-2.2-3.2-3.1-5,1.7,1,4.9,2.5,5.4,4.5.1.5.1,1-.1,1.4-.3.5-1,1-1.5,1.4-3.1,2.3-7,2.4-9.8,4.5-1.8,1.3-2.5,6.6-5.3,9.6.6,1.8,1.1,3.6,1.8,5.3,1.4,3.1,6.5,14.1,5.5,17-.6.5-.7.6-1.4.7-.9-1-.5-3.5-.8-4.8-.9-3.8-3.6-8.5-4.2-12-.4-1.4-.9-2.8-1.2-4.2-.6-2.8.4-4.5,1.9-6.8-.4-3.1-.8-6.8,1.3-9.4,2.4-3,5-.3,7.6,0Z"/>
    <path class="st1" d="M205.5,118.2c-5.1,2.2-12,4.8-16,8.7,0,3.8,0,7.4,1.3,11,.9,2.7,2.4,5.1,4.1,7.5,6.1,9,8.3,12.7,5.4,23.8,3.7-4.1,5.6-8.6,5.3-14.2,0-1.7-.5-3.3-.9-5l-.2-.7c.8.2,2.5,3.3,3,4.2,1.8,3,2,5.7,1.4,9.1,8.2-5.3,15-10.2,17.2-20.4,1.1-5.1,1.1-12.8-1-17.7-2.2-.8-18.3-6.2-19.6-6.2Z"/>
  </g>
  <g>
    <path class="st0" d="M31.9,215.5l.9.2-3.3,9.5H0v-1h1.4c1.6,0,2.8-.5,3.5-1.4.4-.6.6-1.8.6-3.8v-22.6c0-2.2-.3-3.6-.8-4.1-.7-.8-1.8-1.1-3.3-1.1H0v-1h17.3v1c-2,0-3.4.2-4.3.5-.8.4-1.4.8-1.7,1.4-.3.6-.5,1.9-.5,4v22c0,1.4.1,2.4.5,2.9.2.4.6.6,1,.8.5.2,1.9.3,4.4.3h2.8c2.9,0,5-.2,6.2-.6s2.3-1.1,3.2-2.1c1-1,1.9-2.6,2.9-4.8Z"/>
    <path class="st0" d="M58.9,224.2v1h-16.3v-1h1.4c1.6,0,2.7-.4,3.4-1.3.5-.6.7-1.9.7-4v-22.7c0-1.8-.1-2.9-.4-3.5-.2-.4-.6-.8-1.2-1.1-.8-.4-1.7-.6-2.6-.6h-1.4v-1h16.3v1h-1.4c-1.6,0-2.7.4-3.4,1.3-.5.6-.7,1.9-.7,4v22.7c0,1.8.1,2.9.4,3.5.2.4.6.8,1.2,1.1.8.4,1.7.6,2.6.6h1.4Z"/>
    <path class="st0" d="M88.4,189.3c4.9,0,9.2,1.7,12.9,5.2s5.4,7.8,5.4,12.9-1.8,9.8-5.5,13.3c-3.7,3.5-8.1,5.3-13.3,5.3s-9.7-1.7-13.2-5.1c-3.6-3.4-5.4-7.9-5.4-13.3s2.1-10.1,6.2-13.6c3.6-3.1,7.9-4.6,12.9-4.6ZM87.9,191.2c-3.4,0-6.1,1.2-8.2,3.5-2.6,2.9-3.9,7.1-3.9,12.7s1.3,10.1,4,13.2c2,2.3,4.7,3.5,8.1,3.5s6.5-1.3,8.9-3.9c2.3-2.6,3.5-6.6,3.5-12.2s-1.3-10.5-3.9-13.4c-2.1-2.3-4.9-3.5-8.5-3.5Z"/>
    <path class="st0" d="M115.3,190.1h10.3l23.3,26.3v-20.2c0-2.2-.3-3.5-.8-4-.7-.7-1.8-1.1-3.3-1.1h-1.3v-1h13.3v1h-1.3c-1.6,0-2.8.4-3.4,1.3-.4.6-.6,1.8-.6,3.8v29.6h-1l-25.1-28.2v21.6c0,2.2.3,3.5.8,4,.7.7,1.8,1.1,3.3,1.1h1.3v1h-13.3v-1h1.3c1.6,0,2.8-.4,3.5-1.3.4-.6.6-1.8.6-3.8v-24.4c-1.1-1.2-1.9-2-2.5-2.4-.6-.4-1.4-.7-2.5-1.1-.5-.2-1.4-.2-2.5-.2v-1Z"/>
    <path class="st0" d="M212.6,189.3v12.1h-1c-.3-2.3-.9-4.2-1.8-5.6s-2.1-2.5-3.7-3.3c-1.6-.8-3.3-1.2-5-1.2s-3.6.5-4.8,1.6c-1.3,1.1-1.9,2.3-1.9,3.7s.4,2,1.2,2.9c1.2,1.3,3.9,3,8.3,5.2,3.6,1.8,6,3.1,7.3,4,1.3.9,2.3,2,3,3.3.7,1.3,1.1,2.6,1.1,4,0,2.7-1.1,4.9-3.4,6.9s-5.1,2.9-8.6,2.9-2.1,0-3.1-.2c-.6,0-1.8-.4-3.6-.9-1.8-.5-3-.8-3.5-.8s-.8.1-1.1.4c-.3.3-.5.8-.6,1.6h-1v-12h1c.5,2.5,1.1,4.4,2,5.7.8,1.3,2.1,2.3,3.8,3.1,1.7.8,3.6,1.2,5.6,1.2s4.2-.6,5.6-1.7c1.4-1.1,2-2.5,2-4s-.3-1.7-.8-2.6c-.5-.9-1.3-1.7-2.4-2.5-.7-.5-2.7-1.6-6-3.3-3.3-1.7-5.6-3-7-4-1.4-1-2.4-2.1-3.1-3.3-.7-1.2-1.1-2.5-1.1-4,0-2.5,1-4.7,3.1-6.5,2.1-1.8,4.8-2.7,8-2.7s4.2.5,6.4,1.4c1,.4,1.8.6,2.2.6s.9-.1,1.2-.4c.3-.3.6-.8.7-1.6h1Z"/>
    <path class="st0" d="M237.4,192v13.9h8.4c2.2,0,3.6-.3,4.4-.9,1-.8,1.5-2.2,1.6-4.2h1v12.2h-1c-.3-1.7-.5-2.8-.8-3.3-.3-.6-.9-1.1-1.7-1.4-.8-.3-2-.5-3.5-.5h-8.4v11.6c0,1.6,0,2.5.2,2.8.1.3.4.6.8.8s1.1.3,2.1.3h6.5c2.2,0,3.7-.1,4.7-.4,1-.3,1.9-.8,2.8-1.6,1.2-1.1,2.4-2.7,3.6-4.8h1.1l-3.3,8.8h-29.4v-1h1.4c.9,0,1.8-.2,2.6-.6.6-.3,1-.7,1.2-1.2.2-.6.3-1.7.3-3.4v-22.8c0-2.2-.2-3.6-.7-4.1-.7-.7-1.8-1-3.4-1h-1.4v-1h29.4l.4,7.7h-1.1c-.4-1.8-.8-3.1-1.3-3.8-.5-.7-1.2-1.2-2.1-1.6-.8-.3-2.1-.4-4-.4h-10.5Z"/>
    <path class="st0" d="M300.6,215.5l.9.2-3.3,9.5h-29.5v-1h1.4c1.6,0,2.8-.5,3.5-1.4.4-.6.6-1.8.6-3.8v-22.6c0-2.2-.3-3.6-.8-4.1-.7-.8-1.8-1.1-3.3-1.1h-1.4v-1h17.3v1c-2,0-3.4.2-4.3.5-.8.4-1.4.8-1.7,1.4-.3.6-.5,1.9-.5,4v22c0,1.4.2,2.4.5,2.9.2.4.6.6,1,.8.5.2,1.9.3,4.4.3h2.8c2.9,0,5-.2,6.2-.6,1.2-.4,2.3-1.1,3.2-2.1s2-2.6,2.9-4.8Z"/>
    <path class="st0" d="M321.9,192v13.9h8.4c2.2,0,3.6-.3,4.4-.9,1-.8,1.5-2.2,1.6-4.2h1v12.2h-1c-.3-1.7-.5-2.8-.8-3.3-.3-.6-.9-1.1-1.7-1.4-.8-.3-2-.5-3.5-.5h-8.4v11.6c0,1.6,0,2.5.2,2.8.1.3.4.6.8.8s1.1.3,2.1.3h6.5c2.2,0,3.7-.1,4.7-.4,1-.3,1.9-.8,2.8-1.6,1.2-1.1,2.4-2.7,3.6-4.8h1.1l-3.3,8.8h-29.4v-1h1.4c.9,0,1.8-.2,2.6-.6.6-.3,1-.7,1.2-1.2.2-.6.3-1.7.3-3.4v-22.8c0-2.2-.2-3.6-.7-4.1-.7-.7-1.8-1-3.4-1h-1.4v-1h29.4l.4,7.7h-1.1c-.4-1.8-.8-3.1-1.3-3.8-.5-.7-1.2-1.2-2.1-1.6-.8-.3-2.1-.4-4-.4h-10.5Z"/>
    <path class="st0" d="M386.8,189.3l.9,11.9h-.9c-1.2-3.6-2.8-6.1-5-7.7-2.2-1.6-4.7-2.4-7.8-2.4s-4.8.6-6.9,1.8c-2,1.2-3.7,3.1-4.8,5.7-1.2,2.6-1.8,5.8-1.8,9.6s.6,5.9,1.7,8.3c1.1,2.3,2.8,4.1,5,5.4,2.2,1.2,4.8,1.9,7.6,1.9s4.7-.5,6.6-1.5c1.9-1,4-2.9,6.2-5.8l.9.5c-1.9,3.1-4.1,5.4-6.7,6.9-2.5,1.4-5.6,2.2-9.1,2.2-6.3,0-11.2-2.2-14.7-6.5-2.6-3.2-3.9-7-3.9-11.3s.9-6.7,2.6-9.6c1.7-2.9,4.1-5.2,7-6.8,3-1.6,6.3-2.4,9.8-2.4s5.5.6,8.2,1.9c.8.4,1.4.6,1.7.6.5,0,.9-.2,1.3-.5.5-.5.8-1.1,1-1.9h1Z"/>
    <path class="st0" d="M430.9,190.1l.4,8.2h-1.1c-.2-1.4-.5-2.5-.8-3.1-.6-1-1.4-1.7-2.3-2.2-1-.5-2.2-.7-3.8-.7h-5.4v26.8c0,2.2.3,3.5.8,4,.7.7,1.8,1.1,3.3,1.1h1.3v1h-16.2v-1h1.4c1.6,0,2.8-.4,3.4-1.3.4-.6.6-1.8.6-3.8v-26.8h-4.6c-1.8,0-3,.1-3.8.4-1,.3-1.8,1-2.5,1.9-.7.9-1.1,2.2-1.2,3.8h-1.1l.5-8.2h31.1Z"/>
  </g>
  <g>
    <path class="st0" d="M103,270.4c1.4.8,3.4,1.5,5.6,1.5,3.2,0,5.1-1.6,5.1-4s-1.3-3.4-4.6-4.6c-3.9-1.3-6.4-3.3-6.4-6.6s3.1-6.3,7.8-6.3,4.3.6,5.3,1.1l-.9,2.4c-.8-.4-2.4-1.1-4.6-1.1-3.3,0-4.6,1.9-4.6,3.5s1.5,3.2,4.8,4.5c4.1,1.5,6.2,3.4,6.2,6.8s-2.8,6.7-8.5,6.7-4.9-.7-6.2-1.5l.8-2.5Z"/>
    <path class="st0" d="M141.4,266.7l-2.5,7.3h-3.2l8.2-23.2h3.8l8.3,23.2h-3.3l-2.6-7.3h-8.6ZM149.3,264.4l-2.4-6.7c-.5-1.5-.9-2.9-1.3-4.2h0c-.4,1.4-.8,2.8-1.2,4.2l-2.4,6.7h7.3Z"/>
    <path class="st0" d="M175.8,250.8h13v2.5h-9.9v7.7h9.2v2.5h-9.2v10.5h-3.1v-23.2Z"/>
    <path class="st0" d="M210.7,266.7l-2.5,7.3h-3.2l8.2-23.2h3.8l8.3,23.2h-3.3l-2.6-7.3h-8.6ZM218.6,264.4l-2.4-6.7c-.5-1.5-.9-2.9-1.3-4.2h0c-.4,1.4-.8,2.8-1.2,4.2l-2.4,6.7h7.3Z"/>
    <path class="st0" d="M245.1,251.1c1.6-.3,3.8-.5,6-.5,3.3,0,5.5.6,7,1.9,1.2,1,1.9,2.6,1.9,4.4,0,3.1-2,5.1-4.6,5.9h0c1.9.7,3,2.4,3.6,4.8.8,3.2,1.4,5.5,1.9,6.4h-3.2c-.4-.7-.9-2.7-1.6-5.5-.7-3.2-2-4.4-4.8-4.5h-2.9v10.1h-3.1v-22.9ZM248.2,261.7h3.2c3.3,0,5.5-1.8,5.5-4.4s-2.3-4.3-5.6-4.3c-1.5,0-2.6.1-3.1.3v8.5Z"/>
    <path class="st0" d="M283.9,250.8v23.2h-3.1v-23.2h3.1Z"/>
    <path class="st0" d="M305.2,270.4c1.4.8,3.4,1.5,5.6,1.5,3.2,0,5.1-1.6,5.1-4s-1.3-3.4-4.6-4.6c-3.9-1.3-6.4-3.3-6.4-6.6s3.1-6.3,7.8-6.3,4.3.6,5.3,1.1l-.9,2.4c-.8-.4-2.4-1.1-4.6-1.1-3.3,0-4.6,1.9-4.6,3.5s1.5,3.2,4.8,4.5c4.1,1.5,6.2,3.4,6.2,6.8s-2.8,6.7-8.5,6.7-4.9-.7-6.2-1.5l.8-2.5Z"/>
  </g>
  <rect class="st0" x="0" y="255.8" width="79.1" height="1.5"/>
  <rect class="st0" x="351.8" y="255.8" width="79.1" height="1.5"/>
</svg>