<?xml version="1.0" encoding="UTF-8"?>
<svg id="Calque_1" data-name="Calque 1" xmlns="http://www.w3.org/2000/svg" width="200" height="200" viewBox="0 0 200 200">
  <g id="lion">
    <path d="M191.36,85.95c-3.42-11.45-10.98-23.02-21.72-28.81,2.36-1.53,4.13-3.42,5.55-5.9,2.48-4.37,4.13-10.86,2.72-15.82-3.31-11.81-20.31-15.47-31.05-15.82-2.13,0-6.49.94-8.26,0,3.31-4.01,13.11-3.19,17.83-4.37-3.66-2.48-7.2-3.78-11.57-4.72-8.38-1.77-18.65-2.95-26.68.83-2.72,1.3-5.19,3.31-7.67,4.84.94-1.77,2.01-3.31,3.31-4.72,6.49-6.85,14.76-8.15,23.73-8.26-3.07-.94-6.38-1.65-9.45-2.36-7.44-1.53-15.47-1.18-22.08,3.19-7.44,4.96-7.32,12.51-8.97,20.42-.94-2.48-2.01-4.96-3.42-7.2-4.84-7.67-12.28-11.22-20.78-13.11,5.55,7.67,8.03,11.92,9.33,21.49-.94-1.65-1.89-3.31-2.83-5.08-2.83-5.08-8.62-13.11-14.52-14.64-1.18-.35-2.01-.12-3.07.47,3.78,3.78,6.73,8.15,8.5,13.11-8.15-4.25-12.04-6.14-21.61-5.19,4.25,2.24,10.98,5.08,12.51,10.04v.83c-.94.47-1.53.47-2.6.12-2.13-.59-4.01-1.53-6.02-2.24-6.49-2.01-14.17-2.13-20.19,1.18-3.78,2.01-6.49,5.08-8.38,8.74-1.89,5.19-1.89,10.27.47,15.23,1.53,3.19,3.9,5.79,6.26,8.38l.59.24c.35-.12.71-.24,1.06-.47h0c-.24.24-.71.35-1.06.47l-.59-.24c-2.48,2.48-5.55,4.37-8.15,6.85-7.91,7.44-13.34,17.71-16.06,28.22,1.42-2.24,2.6-4.6,4.01-6.85,4.25-6.61,9.68-12.99,15.7-18.06-2.24,4.6-5.31,8.85-7.79,13.46-6.49,11.92-8.03,25.86-7.08,39.32,1.53-3.07,2.24-7.32,3.42-10.74,4.84-12.99,9.45-17.83,19.13-27.39-2.13,5.43-5.43,10.27-8.26,15.35-7.44,13.46-9.56,26.56-5.79,41.44,2.95-11.57,6.14-23.26,16.29-30.7-4.49,7.56-7.79,16.17-8.5,24.91-.71,9.56,2.13,19.48,8.38,26.8-3.54-17.83-1.3-27.15,8.38-42.27-3.19,12.75-4.25,27.27.94,39.67,4.01,9.68,10.63,18.18,20.54,22.2-2.24-2.6-5.08-4.72-7.32-7.32-4.72-5.67-5.43-13.34-4.72-20.42,1.3,3.66,2.01,7.56,3.78,11.22,3.42,6.97,14.64,17.71,21.37,21.61-4.13-9.56-11.81-18.06-14.64-28.22-2.24-7.79,6.49-15.58,5.19-24.32-.59-3.66-4.96-1.65-7.32-3.42-3.66-2.72,2.6-13.46.47-19.13-1.65-4.25-4.37-8.26-6.61-12.16-3.54-6.14-8.26-15.82-7.79-23.02.24-4.25,4.84-9.21,6.85-12.87,1.06-1.89,1.65-3.78,2.36-5.9.35-1.3.94-2.6.71-4.01-.24-.47-.59-.83-1.06-1.06-3.54-2.13-13.22-1.06-16.77.59-2.24,1.06-4.6,3.54-6.97,4.13h-.24c-3.42-3.66-5.43-8.5-5.08-13.58.12-3.19,1.42-6.38,3.78-8.5,2.24-2.01,5.31-2.83,8.26-2.72,4.01.24,6.49,2.13,9.45,4.49-3.54,2.24-10.86,6.61-11.92,10.86v1.18l.47.71c1.42.24,9.21-3.07,11.33-3.54,7.91-2.13,16.88-4.01,25.15-3.9-2.83,2.72-5.55,5.55-8.03,8.62-3.66,4.72-13.58,20.42-13.81,25.97-.24,8.26,12.75,18.42,14.52,24.2.94,2.95.24,6.61.24,9.68l.47.35c1.18-1.06,2.83-12.28,2.95-14.64,0-1.06,0-2.13.12-3.19,2.36,3.78,2.6,6.61,1.53,10.98-1.53,6.02-4.01,11.81-5.08,17.95,2.83-.59,5.67-1.06,8.5-1.3-1.65,2.24-3.31,4.6-4.96,6.85,4.13,1.06,8.5,1.42,12.51,2.95-2.83,1.3-6.02,2.13-8.85,3.54.83,2.36,1.65,5.79,4.13,6.85,3.78,1.65,8.85.24,12.4-1.18,2.01-.83,4.6-1.89,5.79-3.66.24-1.06,0-2.01,0-3.07-.35-1.06-.35-2.36-.47-3.42-.47-4.72-1.89-6.61-5.19-9.92-1.18-.59-2.48-1.77-3.66-2.48-2.13-1.3-7.79-3.54-8.5-5.79-.12-.47,0-.59.24-1.06,1.18-.24,2.36-.12,3.54,0,3.42.59,13.81,2.6,16.53,3.78.71.24,1.06.83,1.53,1.42h0c2.01,0,12.4-7.56,17.12-5.31.47.59.83.83.94,1.65-2.95,4.25-18.54,3.42-20.31,19.01.24,2.36,0,4.25,2.13,6.02,3.54,2.95,11.1,5.55,15.82,5.08,1.3-.12,2.72-.59,3.54-1.65s1.18-2.83,1.06-4.13c-.24-1.65-1.53-2.48-2.83-3.42,4.49-3.66,10.27-5.43,14.17-9.8.59-9.68-2.95-18.89-3.19-28.45,3.42-2.13,5.43-6.97,7.67-10.39-.94,4.72-4.49,8.97-4.37,13.93,0,1.3.71,3.54,1.65,4.37.24.24.59.12.94.12,1.42-1.06,2.48-2.83,3.31-4.37,1.3-2.36,8.38-17.71,8.62-19.6.35-2.36-.35-4.6-1.06-6.85-5.19-12.28-14.05-23.73-26.45-29.16,11.45-.47,20.19,2.13,30.7,6.49,3.19,1.53,6.38,3.31,9.56,4.6.83-.83,1.3-1.3,1.3-2.48.24-4.84-8.62-10.86-7.91-14.4.12-.83.83-1.53,1.3-2.13,1.77-1.77,4.25-2.72,6.73-2.6h1.06c.35,0,.71,0,1.06.24.35,0,.71.12,1.06.24.35,0,.71.24,1.06.35.35.12.71.35.94.47.35.12.59.35.94.59.24.24.59.47.83.71s.59.47.83.71c2.6,2.72,2.83,6.49,2.83,10.04,0,3.19-.83,7.91-3.31,10.15-1.06.94-2.24,1.3-3.66,1.18-1.89-.12-3.78-.71-5.67-1.06-3.19-1.18-6.38-2.72-9.45-4.25-2.36.24-5.31,2.24-7.32,3.54,1.77,5.19,3.66,10.51,5.79,15.58,1.42,4.25,4.37,10.04,3.78,14.52-.24,2.13-1.06,4.25-1.53,6.38-.59,2.83-.83,5.79-2.13,8.5-2.36,4.96-7.91,7.32-10.39,11.45-.59,1.18-.59,2.6-.47,3.78.83,10.86-2.24,12.4-10.27,18.65-.12,4.25-1.77,8.62-1.53,12.75.24,3.31,1.53,6.49,2.24,9.8,1.3,7.2,1.65,16.17-.47,23.14-.94,3.07-2.36,5.9-3.42,8.85,8.26-8.5,10.51-16.06,10.27-27.63,0-4.25-.59-8.38-1.53-12.51-.71-2.95-3.54-7.08-3.31-10.04,7.79,15.7,10.86,27.51,6.14,44.86,8.26-4.49,14.17-10.86,19.24-18.65,5.08-7.56,6.85-15.7,5.08-24.68,0-.59-.24-1.18-.35-1.77-.12-.59-.35-1.18-.47-1.77s-.35-1.18-.59-1.65c-.24-.59-.47-1.06-.59-1.65-.24-.59-.47-1.06-.71-1.65s-.47-1.06-.83-1.65c-.24-.47-.59-1.06-.83-1.53-.35-.47-.59-1.06-.94-1.53s-.71-.94-1.06-1.42c-.35-.47-.71-.94-1.06-1.42-.35-.47-.71-.94-1.18-1.3-.35-.47-.83-.83-1.18-1.3-.47-.47-.83-.83-1.3-1.18-.47-.35-.94-.83-1.3-1.18-.47-.35-.94-.71-1.42-1.06s-.94-.71-1.42-1.06c1.06.24,2.24.59,3.31.94,6.49,2.24,11.81,9.33,14.88,15.47,5.9,11.92,4.37,19.24.35,31.29,2.6-2.83,4.84-6.26,6.38-9.8,6.38-14.17,4.37-26.68-4.49-39.2-1.65-2.36-4.6-4.84-5.55-7.32l.35-.35c.35,0,.83.24,1.18.35,2.48,1.06,4.96,2.95,7.08,4.72,8.15,6.85,10.04,13.46,13.81,22.9.83-2.13,1.53-4.25,1.77-6.49,1.65-17.36-14.88-29.52-24.68-41.44,11.22,4.84,21.37,13.34,26.92,24.32,1.18,2.48,2.72,7.44,4.96,9.09.24-2.24,0-4.84-.12-7.08-1.53-18.3-14.29-31.64-24.44-45.93,7.08,5.55,13.93,9.56,19.72,16.77,2.48,3.07,4.01,6.61,6.49,9.68h.47c.59-1.53-.71-5.08-1.18-6.61l-.83.71ZM32.69,55.84v.24-.24ZM32.57,56.2v.24-.24ZM32.45,56.43s0,.12-.12.24c0,0,.12-.12.12-.24ZM83.57,73.79c-5.79,8.62-2.13,10.15-3.78,18.89-.24,1.3-.94,3.54-2.01,4.25v-.94c.59-1.77.94-3.9.83-5.67-.24-3.07-1.06-6.14-2.01-9.09-4.13-12.04-10.51-6.49-15.11-10.74-.35-.35-.35-.47-.35-.94,1.42-1.89,5.79-1.18,7.91-1.89,1.89-.59,3.9-1.89,5.67-2.72.35.12,1.18.47,1.42.71.59.59,3.9,6.49,5.19,8.26.59-1.06,1.06-2.36,1.77-3.42.47-.83,1.06-1.18,1.89-1.42l.59.35c0,1.53-1.06,3.07-1.89,4.25l-.12.12ZM103.76,66.12c0-.12,0-.24-.12-.35-1.42-4.25-2.36-16.53-.35-20.54l.71.47c0,.35.24.71.24.94.35,2.72.59,18.06-.47,19.48ZM125.72,121.25c-2.36,2.24-6.14,2.6-9.21,2.48-.35,0-.59-.35-.83-.47,0-1.42,1.3-2.83,2.01-4.01,2.72-.71,5.55-1.06,8.38-1.77.47,0,.59,0,.94.24v.71c0,1.06-.71,2.13-1.42,2.83h.12ZM127.73,68.95c1.06.12,2.36-.47,3.42-.59.71-.83,1.06-1.06,1.3-2.13-.71-2.24-2.6-3.78-3.66-5.9,2.01,1.18,5.79,2.95,6.38,5.31.12.59.12,1.18-.12,1.65-.35.59-1.18,1.18-1.77,1.65-3.66,2.72-8.26,2.83-11.57,5.31-2.13,1.53-2.95,7.79-6.26,11.33.71,2.13,1.3,4.25,2.13,6.26,1.65,3.66,7.67,16.65,6.49,20.07-.71.59-.83.71-1.65.83-1.06-1.18-.59-4.13-.94-5.67-1.06-4.49-4.25-10.04-4.96-14.17-.47-1.65-1.06-3.31-1.42-4.96-.71-3.31.47-5.31,2.24-8.03-.47-3.66-.94-8.03,1.53-11.1,2.83-3.54,5.9-.35,8.97,0l-.12.12Z" fill="#fbbb47"/>
    <path d="M97.27,139.79c-6.02,2.6-14.17,5.67-18.89,10.27,0,4.49,0,8.74,1.53,12.99,1.06,3.19,2.83,6.02,4.84,8.85,7.2,10.63,9.8,14.99,6.38,28.1,4.37-4.84,6.61-10.15,6.26-16.77,0-2.01-.59-3.9-1.06-5.9l-.24-.83c.94.24,2.95,3.9,3.54,4.96,2.13,3.54,2.36,6.73,1.65,10.74,9.68-6.26,17.71-12.04,20.31-24.08,1.3-6.02,1.3-15.11-1.18-20.9-2.6-.94-21.61-7.32-23.14-7.32v-.12Z" fill="#fbbb47"/>
  </g>
</svg>