<svg xmlns="http://www.w3.org/2000/svg" viewBox="0 0 400 200" fill="none">
  <rect width="400" height="200" fill="#f5f5f4"/>

  <!-- Header -->
  <g transform="translate(120, 15)">
    <!-- Sur-titre -->
    <rect x="40" y="0" width="80" height="12" rx="6" fill="#fcbb46" opacity="0.2"/>
    <rect x="50" y="3" width="60" height="6" rx="2" fill="#fcbb46"/>
    <!-- Title -->
    <rect x="10" y="18" width="140" height="10" rx="2" fill="#292524"/>
  </g>

  <!-- FAQ Accordion items -->
  <g transform="translate(60, 50)">
    <!-- Item 1 (expanded) -->
    <rect x="0" y="0" width="280" height="55" rx="6" fill="#ffffff" stroke="#e7e5e4" stroke-width="1"/>
    <rect x="15" y="12" width="180" height="7" rx="1" fill="#292524"/>
    <!-- Chevron up -->
    <path d="M255 20 L260 14 L265 20" stroke="#fcbb46" stroke-width="2" stroke-linecap="round" fill="none"/>
    <!-- Answer content -->
    <rect x="15" y="30" width="250" height="4" rx="1" fill="#78716c"/>
    <rect x="15" y="38" width="230" height="4" rx="1" fill="#78716c"/>
    <rect x="15" y="46" width="180" height="4" rx="1" fill="#78716c"/>

    <!-- Item 2 (collapsed) -->
    <rect x="0" y="62" width="280" height="35" rx="6" fill="#ffffff" stroke="#e7e5e4" stroke-width="1"/>
    <rect x="15" y="76" width="200" height="7" rx="1" fill="#292524"/>
    <!-- Chevron down -->
    <path d="M255 75 L260 81 L265 75" stroke="#fcbb46" stroke-width="2" stroke-linecap="round" fill="none"/>

    <!-- Item 3 (collapsed) -->
    <rect x="0" y="104" width="280" height="35" rx="6" fill="#ffffff" stroke="#e7e5e4" stroke-width="1"/>
    <rect x="15" y="118" width="170" height="7" rx="1" fill="#292524"/>
    <!-- Chevron down -->
    <path d="M255 117 L260 123 L265 117" stroke="#fcbb46" stroke-width="2" stroke-linecap="round" fill="none"/>
  </g>

  <!-- Question mark decoration -->
  <g transform="translate(35, 85)" opacity="0.15">
    <text font-family="system-ui, sans-serif" font-size="50" font-weight="bold" fill="#fcbb46">?</text>
  </g>

  <!-- Label -->
  <text x="200" y="185" text-anchor="middle" font-family="system-ui, sans-serif" font-size="11" fill="#78716c">FAQ (Accordion)</text>
</svg>