<svg xmlns="http://www.w3.org/2000/svg" viewBox="0 0 400 200" fill="none">
  <rect width="400" height="200" fill="#f5f5f4"/>

  <!-- Gallery grid 4 columns -->
  <g transform="translate(20, 25)">
    <!-- Row 1 -->
    <rect x="0" y="0" width="85" height="64" rx="6" fill="#e7e5e4"/>
    <circle cx="20" cy="18" r="8" fill="#d6d3d1"/>
    <path d="M5 50 L25 35 L45 48 L65 30 L80 45 L80 58 L5 58 Z" fill="#d6d3d1"/>

    <rect x="92" y="0" width="85" height="64" rx="6" fill="#e7e5e4"/>
    <circle cx="112" cy="18" r="8" fill="#d6d3d1"/>
    <path d="M97 50 L117 35 L137 48 L157 30 L172 45 L172 58 L97 58 Z" fill="#d6d3d1"/>

    <rect x="184" y="0" width="85" height="64" rx="6" fill="#e7e5e4"/>
    <circle cx="204" cy="18" r="8" fill="#d6d3d1"/>
    <path d="M189 50 L209 35 L229 48 L249 30 L264 45 L264 58 L189 58 Z" fill="#d6d3d1"/>

    <rect x="276" y="0" width="85" height="64" rx="6" fill="#e7e5e4"/>
    <circle cx="296" cy="18" r="8" fill="#d6d3d1"/>
    <path d="M281 50 L301 35 L321 48 L341 30 L356 45 L356 58 L281 58 Z" fill="#d6d3d1"/>

    <!-- Row 2 -->
    <rect x="0" y="72" width="85" height="64" rx="6" fill="#e7e5e4"/>
    <circle cx="20" cy="90" r="8" fill="#d6d3d1"/>
    <path d="M5 122 L25 107 L45 120 L65 102 L80 117 L80 130 L5 130 Z" fill="#d6d3d1"/>

    <rect x="92" y="72" width="85" height="64" rx="6" fill="#e7e5e4"/>
    <circle cx="112" cy="90" r="8" fill="#d6d3d1"/>
    <path d="M97 122 L117 107 L137 120 L157 102 L172 117 L172 130 L97 130 Z" fill="#d6d3d1"/>

    <rect x="184" y="72" width="85" height="64" rx="6" fill="#e7e5e4"/>
    <circle cx="204" cy="90" r="8" fill="#d6d3d1"/>
    <path d="M189 122 L209 107 L229 120 L249 102 L264 117 L264 130 L189 130 Z" fill="#d6d3d1"/>

    <rect x="276" y="72" width="85" height="64" rx="6" fill="#e7e5e4"/>
    <circle cx="296" cy="90" r="8" fill="#d6d3d1"/>
    <path d="M281 122 L301 107 L321 120 L341 102 L356 117 L356 130 L281 130 Z" fill="#d6d3d1"/>
  </g>

  <!-- Lightbox icon indicator -->
  <g transform="translate(355, 150)" opacity="0.5">
    <rect x="0" y="0" width="20" height="16" rx="2" stroke="#78716c" stroke-width="1.5" fill="none"/>
    <path d="M5 5 L8 5 M5 5 L5 8 M15 11 L12 11 M15 11 L15 8" stroke="#78716c" stroke-width="1.5" stroke-linecap="round"/>
  </g>

  <!-- Label -->
  <text x="200" y="185" text-anchor="middle" font-family="system-ui, sans-serif" font-size="11" fill="#78716c">Galerie (Lightbox)</text>
</svg>