<svg xmlns="http://www.w3.org/2000/svg" viewBox="0 0 400 200" fill="none">
  <rect width="400" height="200" fill="#f5f5f4"/>

  <!-- Full hero section -->
  <g transform="translate(20, 20)">
    <!-- Background image -->
    <rect x="0" y="0" width="360" height="155" rx="6" fill="#44403c"/>

    <!-- Overlay -->
    <rect x="0" y="0" width="360" height="155" rx="6" fill="#292524" opacity="0.4"/>

    <!-- Decorative landscape -->
    <path d="M0 120 Q60 90, 120 110 T240 95 T360 105 L360 155 L0 155 Z" fill="#292524" opacity="0.2"/>

    <!-- Content centered -->
    <g transform="translate(80, 30)">
      <!-- Sur-titre badge -->
      <rect x="60" y="0" width="80" height="14" rx="7" fill="#fcbb46" opacity="0.2"/>
      <rect x="70" y="4" width="60" height="6" rx="2" fill="#fcbb46"/>

      <!-- Title -->
      <rect x="20" y="25" width="160" height="14" rx="2" fill="#ffffff"/>
      <rect x="50" y="45" width="100" height="14" rx="2" fill="#ffffff"/>

      <!-- Description -->
      <rect x="30" y="70" width="140" height="5" rx="1" fill="#ffffff" opacity="0.7"/>
      <rect x="45" y="80" width="110" height="5" rx="1" fill="#ffffff" opacity="0.7"/>

      <!-- CTA Button -->
      <rect x="55" y="98" width="90" height="28" rx="6" fill="#fcbb46"/>
      <rect x="70" y="109" width="45" height="6" rx="1" fill="#ffffff"/>
      <path d="M122 112 L128 112 M126 109 L129 112 L126 115" stroke="#ffffff" stroke-width="1.5" stroke-linecap="round"/>
    </g>
  </g>

  <!-- Label -->
  <text x="200" y="190" text-anchor="middle" font-family="system-ui, sans-serif" font-size="11" fill="#78716c">Hero (Image de fond)</text>
</svg>