<svg xmlns="http://www.w3.org/2000/svg" viewBox="0 0 400 200" fill="none">
  <rect width="400" height="200" fill="#f5f5f4"/>

  <!-- Header -->
  <g transform="translate(120, 15)">
    <!-- Sur-titre -->
    <rect x="40" y="0" width="80" height="12" rx="6" fill="#fcbb46" opacity="0.2"/>
    <rect x="50" y="3" width="60" height="6" rx="2" fill="#fcbb46"/>
    <!-- Title -->
    <rect x="20" y="18" width="120" height="10" rx="2" fill="#292524"/>
  </g>

  <!-- Testimonial cards (slider) -->
  <g transform="translate(20, 50)">
    <!-- Card 1 -->
    <rect x="0" y="0" width="115" height="115" rx="8" fill="#ffffff" stroke="#e7e5e4" stroke-width="1"/>
    <!-- Stars -->
    <g transform="translate(10, 10)">
      <polygon points="5,0 6.5,3.5 10,3.5 7,6 8,10 5,7.5 2,10 3,6 0,3.5 3.5,3.5" fill="#fbbf24" transform="scale(0.7)"/>
      <polygon points="5,0 6.5,3.5 10,3.5 7,6 8,10 5,7.5 2,10 3,6 0,3.5 3.5,3.5" fill="#fbbf24" transform="translate(8,0) scale(0.7)"/>
      <polygon points="5,0 6.5,3.5 10,3.5 7,6 8,10 5,7.5 2,10 3,6 0,3.5 3.5,3.5" fill="#fbbf24" transform="translate(16,0) scale(0.7)"/>
      <polygon points="5,0 6.5,3.5 10,3.5 7,6 8,10 5,7.5 2,10 3,6 0,3.5 3.5,3.5" fill="#fbbf24" transform="translate(24,0) scale(0.7)"/>
      <polygon points="5,0 6.5,3.5 10,3.5 7,6 8,10 5,7.5 2,10 3,6 0,3.5 3.5,3.5" fill="#fbbf24" transform="translate(32,0) scale(0.7)"/>
    </g>
    <!-- Quote -->
    <rect x="10" y="25" width="95" height="5" rx="1" fill="#78716c"/>
    <rect x="10" y="34" width="90" height="5" rx="1" fill="#78716c"/>
    <rect x="10" y="43" width="85" height="5" rx="1" fill="#78716c"/>
    <rect x="10" y="52" width="70" height="5" rx="1" fill="#78716c"/>
    <!-- Author -->
    <circle cx="25" cy="90" r="12" fill="#e7e5e4"/>
    <rect x="42" y="84" width="60" height="6" rx="1" fill="#292524"/>
    <rect x="42" y="94" width="45" height="5" rx="1" fill="#a8a29e"/>

    <!-- Card 2 -->
    <rect x="122" y="0" width="115" height="115" rx="8" fill="#ffffff" stroke="#e7e5e4" stroke-width="1"/>
    <g transform="translate(132, 10)">
      <polygon points="5,0 6.5,3.5 10,3.5 7,6 8,10 5,7.5 2,10 3,6 0,3.5 3.5,3.5" fill="#fbbf24" transform="scale(0.7)"/>
      <polygon points="5,0 6.5,3.5 10,3.5 7,6 8,10 5,7.5 2,10 3,6 0,3.5 3.5,3.5" fill="#fbbf24" transform="translate(8,0) scale(0.7)"/>
      <polygon points="5,0 6.5,3.5 10,3.5 7,6 8,10 5,7.5 2,10 3,6 0,3.5 3.5,3.5" fill="#fbbf24" transform="translate(16,0) scale(0.7)"/>
      <polygon points="5,0 6.5,3.5 10,3.5 7,6 8,10 5,7.5 2,10 3,6 0,3.5 3.5,3.5" fill="#fbbf24" transform="translate(24,0) scale(0.7)"/>
      <polygon points="5,0 6.5,3.5 10,3.5 7,6 8,10 5,7.5 2,10 3,6 0,3.5 3.5,3.5" fill="#fbbf24" transform="translate(32,0) scale(0.7)"/>
    </g>
    <rect x="132" y="25" width="95" height="5" rx="1" fill="#78716c"/>
    <rect x="132" y="34" width="90" height="5" rx="1" fill="#78716c"/>
    <rect x="132" y="43" width="85" height="5" rx="1" fill="#78716c"/>
    <rect x="132" y="52" width="70" height="5" rx="1" fill="#78716c"/>
    <circle cx="147" cy="90" r="12" fill="#e7e5e4"/>
    <rect x="164" y="84" width="60" height="6" rx="1" fill="#292524"/>
    <rect x="164" y="94" width="45" height="5" rx="1" fill="#a8a29e"/>

    <!-- Card 3 -->
    <rect x="244" y="0" width="115" height="115" rx="8" fill="#ffffff" stroke="#e7e5e4" stroke-width="1"/>
    <g transform="translate(254, 10)">
      <polygon points="5,0 6.5,3.5 10,3.5 7,6 8,10 5,7.5 2,10 3,6 0,3.5 3.5,3.5" fill="#fbbf24" transform="scale(0.7)"/>
      <polygon points="5,0 6.5,3.5 10,3.5 7,6 8,10 5,7.5 2,10 3,6 0,3.5 3.5,3.5" fill="#fbbf24" transform="translate(8,0) scale(0.7)"/>
      <polygon points="5,0 6.5,3.5 10,3.5 7,6 8,10 5,7.5 2,10 3,6 0,3.5 3.5,3.5" fill="#fbbf24" transform="translate(16,0) scale(0.7)"/>
      <polygon points="5,0 6.5,3.5 10,3.5 7,6 8,10 5,7.5 2,10 3,6 0,3.5 3.5,3.5" fill="#fbbf24" transform="translate(24,0) scale(0.7)"/>
      <polygon points="5,0 6.5,3.5 10,3.5 7,6 8,10 5,7.5 2,10 3,6 0,3.5 3.5,3.5" fill="#fbbf24" transform="translate(32,0) scale(0.7)"/>
    </g>
    <rect x="254" y="25" width="95" height="5" rx="1" fill="#78716c"/>
    <rect x="254" y="34" width="90" height="5" rx="1" fill="#78716c"/>
    <rect x="254" y="43" width="85" height="5" rx="1" fill="#78716c"/>
    <rect x="254" y="52" width="70" height="5" rx="1" fill="#78716c"/>
    <circle cx="269" cy="90" r="12" fill="#e7e5e4"/>
    <rect x="286" y="84" width="60" height="6" rx="1" fill="#292524"/>
    <rect x="286" y="94" width="45" height="5" rx="1" fill="#a8a29e"/>
  </g>

  <!-- Slider indicator -->
  <g transform="translate(175, 172)">
    <circle cx="0" cy="0" r="4" fill="#fcbb46"/>
    <circle cx="15" cy="0" r="4" fill="#d6d3d1"/>
    <circle cx="30" cy="0" r="4" fill="#d6d3d1"/>
  </g>

  <!-- Label -->
  <text x="200" y="192" text-anchor="middle" font-family="system-ui, sans-serif" font-size="11" fill="#78716c">Temoignages (Slider)</text>
</svg>