<svg xmlns="http://www.w3.org/2000/svg" viewBox="0 0 400 200" fill="none">
  <rect width="400" height="200" fill="#f5f5f4"/>

  <!-- Left: Text content -->
  <g transform="translate(20, 30)">
    <!-- Sur-titre badge -->
    <rect x="0" y="0" width="60" height="12" rx="6" fill="#fcbb46" opacity="0.3"/>
    <rect x="5" y="4" width="50" height="4" rx="2" fill="#fcbb46"/>

    <!-- Title -->
    <rect x="0" y="22" width="140" height="14" rx="2" fill="#292524"/>
    <rect x="0" y="40" width="100" height="14" rx="2" fill="#292524"/>

    <!-- Text lines -->
    <rect x="0" y="65" width="160" height="6" rx="1" fill="#78716c"/>
    <rect x="0" y="77" width="150" height="6" rx="1" fill="#78716c"/>
    <rect x="0" y="89" width="155" height="6" rx="1" fill="#78716c"/>
    <rect x="0" y="101" width="140" height="6" rx="1" fill="#78716c"/>

    <!-- Button -->
    <rect x="0" y="120" width="90" height="28" rx="6" fill="none" stroke="#fcbb46" stroke-width="2"/>
    <rect x="12" y="131" width="50" height="6" rx="1" fill="#fcbb46"/>
    <path d="M72 134 L78 134 M76 131 L79 134 L76 137" stroke="#fcbb46" stroke-width="1.5" stroke-linecap="round"/>
  </g>

  <!-- Right: Image -->
  <g transform="translate(210, 20)">
    <rect x="0" y="0" width="170" height="127" rx="8" fill="#e7e5e4"/>
    <circle cx="40" cy="35" r="15" fill="#d6d3d1"/>
    <path d="M15 100 L50 70 L85 95 L120 55 L155 90 L155 115 L15 115 Z" fill="#d6d3d1"/>
    <!-- Image icon -->
    <rect x="70" y="50" width="30" height="25" rx="2" stroke="#a8a29e" stroke-width="2" fill="none"/>
    <circle cx="78" cy="58" r="3" fill="#a8a29e"/>
    <path d="M72 70 L80 62 L88 70 L95 65 L98 70" stroke="#a8a29e" stroke-width="1.5" fill="none"/>
  </g>

  <!-- Label -->
  <text x="200" y="185" text-anchor="middle" font-family="system-ui, sans-serif" font-size="11" fill="#78716c">Texte + Image</text>
</svg>